<?xml version="1.0" standalone="no"?>
<!DOCTYPE svg PUBLIC "-//W3C//DTD SVG 20010904//EN"
 "http://www.w3.org/TR/2001/REC-SVG-20010904/DTD/svg10.dtd">
<svg version="1.0" xmlns="http://www.w3.org/2000/svg"
 width="30px" height="16px" viewBox="0 0 512.000000 512.000000"
 preserveAspectRatio="xMidYMid meet">
<metadata>
Created by potrace 1.16, written by Peter Selinger 2001-2019
</metadata>
<g transform="translate(0.000000,512.000000) scale(0.100000,-0.100000)"
fill="#000000" stroke="none">
<path d="M1157 3786 c-44 -24 -1106 -1075 -1133 -1122 -34 -57 -34 -151 0
-208 13 -23 271 -285 574 -583 602 -593 561 -560 678 -551 126 11 209 154 159
276 -11 25 -133 154 -378 400 l-362 362 2144 0 2144 0 43 25 c63 37 94 95 94
175 0 80 -31 138 -94 175 l-43 25 -2144 0 -2144 0 362 363 c245 245 367 374
378 399 34 84 6 183 -68 242 -33 27 -48 31 -110 34 -51 2 -80 -2 -100 -12z"/>
</g>
</svg>
